# xmcd CD database file
#
# Track frame offsets:
#	150
#	13367
#	39017
#	59607
#	97092
#	116300
#	137582
#	157365
#	187165
#	208735
#	224962
#	244047
#
# Disc length: 3469 seconds
#
# Revision: 3
# Processed by: cddbd v1.5.2PL0 Copyright (c) Steve Scherf et al.
# Submitted via: CDex 1.51
#
DISCID=bd0d8b0c
DTITLE=Billy C. Farlow and Bleu Jackson - Blue Highway
DYEAR=1995
DGENRE=Americana
TTITLE0=My Train Has Come And Gone
TTITLE1=Magnolia Bend
TTITLE2=Butler Bridge
TTITLE3=Sunny Land
TTITLE4=Get Down And Roll
TTITLE5=It´s Gonna Rain
TTITLE6=Dark As Midnight
TTITLE7=Blue Highway
TTITLE8=Don´t Cry To Me
TTITLE9=Jockey On My Back
TTITLE10=Don´t Mess With Me Baby
TTITLE11=That´s My Gal
EXTD=YEAR: 1995
EXTT0=
EXTT1=
EXTT2=
EXTT3=
EXTT4=
EXTT5=
EXTT6=
EXTT7=
EXTT8=
EXTT9=
EXTT10=
EXTT11=
PLAYORDER=
